<?xml version="1.0" encoding="utf-8"?>
<!-- Generator: Adobe Illustrator 24.1.1, SVG Export Plug-In . SVG Version: 6.00 Build 0)  -->
<!DOCTYPE svg PUBLIC "-//W3C//DTD SVG 1.1//EN" "http://www.w3.org/Graphics/SVG/1.1/DTD/svg11.dtd" [
	<!ENTITY st0 "fill:#F2F2F2;">
]>
<svg version="1.1" id="Réteg_1" xmlns="http://www.w3.org/2000/svg" xmlns:xlink="http://www.w3.org/1999/xlink" x="0px" y="0px"
	 viewBox="0 0 28 13" style="enable-background:new 0 0 28 13;" xml:space="preserve">
<g>
	<polygon style="&st0;" points="3.6,2.9 2,2.9 2.7,6.7 4.3,6.7 	"/>
	<rect x="15" y="7.2" style="&st0;" width="2.1" height="0.5"/>
	<rect x="12.1" y="7.2" style="&st0;" width="2.1" height="0.5"/>
	<path style="&st0;" d="M19.3,8.1h-8.8v0c0-0.3,0.3-0.6,0.6-0.6h7.5C19,7.5,19.3,7.8,19.3,8.1L19.3,8.1z"/>
	<polygon style="&st0;" points="22.6,11.7 2.2,11.7 0.7,7.9 20.8,7.9 21.6,7 27.3,7 	"/>
	<polygon style="&st0;" points="1.8,10.7 23.5,10.7 24.3,10 1.5,10 	"/>
	<rect x="1.5" y="7" style="&st0;" width="7.3" height="0.9"/>
	<rect x="4.9" y="4.7" style="&st0;" width="3.5" height="2.3"/>
	<rect x="4.9" y="6.9" style="&st0;" width="3.5" height="0.1"/>
	<rect x="4.9" y="4.7" style="&st0;" width="3.5" height="0.1"/>
	<polygon style="&st0;" points="4.6,4.4 8.5,4.4 8.5,4.7 4.3,4.7 	"/>
	<path style="&st0;" d="M4.5,6.4H2.4c-0.1,0-0.2,0.1-0.2,0.2V7h2.6V6.7C4.8,6.5,4.6,6.4,4.5,6.4z"/>
	<polygon style="&st0;" points="3.8,3.8 2.2,3.8 2.1,3.2 3.7,3.2 	"/>
	<rect x="7.6" y="5.3" style="&st0;" width="0.5" height="0.6"/>
	<rect x="6.9" y="5.3" style="&st0;" width="0.5" height="0.6"/>
	<rect x="6.3" y="5.3" style="&st0;" width="0.5" height="0.6"/>
	<path style="&st0;" d="M5.5,3.9L5.5,3.9c-0.2,0-0.4,0.2-0.4,0.4v0.1H6V4.3C6,4.1,5.8,3.9,5.5,3.9z"/>
	<polygon style="&st0;" points="5.1,1.3 5,4.4 5.1,4.4 	"/>
	<g>
		<rect x="17.6" y="2.8" style="&st0;" width="0.3" height="5.1"/>
		<rect x="17.6" y="2.8" style="&st0;" width="0.3" height="0.7"/>
		<rect x="17.5" y="2.9" style="&st0;" width="0.1" height="5"/>
		<rect x="17.5" y="3.8" style="&st0;" width="0.2" height="0.1"/>
		<rect x="17.5" y="5.1" style="&st0;" width="0.2" height="0.1"/>
		<rect x="17.5" y="5.3" style="&st0;" width="0.2" height="0.1"/>
		<rect x="17.5" y="6.6" style="&st0;" width="0.2" height="0.1"/>
		<rect x="17.5" y="6.9" style="&st0;" width="0.2" height="0.1"/>
		<rect x="17.5" y="7.2" style="&st0;" width="0.2" height="0.5"/>
	</g>
	<g>
		<rect x="10.1" y="2.8" style="&st0;" width="0.3" height="5.1"/>
		<rect x="10.1" y="2.8" style="&st0;" width="0.3" height="0.7"/>
		<rect x="9.9" y="2.9" style="&st0;" width="0.1" height="5"/>
		<rect x="9.9" y="3.8" style="&st0;" width="0.2" height="0.1"/>
		<rect x="9.9" y="5.1" style="&st0;" width="0.2" height="0.1"/>
		<rect x="9.9" y="5.3" style="&st0;" width="0.2" height="0.1"/>
		<rect x="9.9" y="6.6" style="&st0;" width="0.2" height="0.1"/>
		<rect x="9.9" y="6.9" style="&st0;" width="0.2" height="0.1"/>
		<rect x="9.9" y="7.2" style="&st0;" width="0.2" height="0.5"/>
	</g>
	<g>
		<polygon style="&st0;" points="21.9,3.4 21.8,7 22,7 		"/>
		<path style="&st0;" d="M21.9,3.3L21.9,3.3c-0.1,0-0.1,0-0.1,0.1v0.1H22L21.9,3.3C22,3.3,22,3.3,21.9,3.3z"/>
	</g>
</g>
</svg>
