<svg height="512pt" viewBox="0 0 512 512" width="512pt" xmlns="http://www.w3.org/2000/svg" xmlns:xlink="http://www.w3.org/1999/xlink"><linearGradient id="a" gradientUnits="userSpaceOnUse" x1="74.9807" x2="437.0193" y1="74.9807" y2="437.0193"><stop offset="0" stop-color="#ff5a99"/><stop offset="1" stop-color="#e53c79"/></linearGradient><linearGradient id="b"><stop offset="0" stop-color="#fed2a4"/><stop offset="1" stop-color="#f6a96c"/></linearGradient><linearGradient id="c" gradientUnits="userSpaceOnUse" x1="155.5028" x2="275.7784" xlink:href="#b" y1="106.9876" y2="227.2632"/><linearGradient id="d" gradientUnits="userSpaceOnUse" x1="154.9715" x2="270.5614" xlink:href="#b" y1="211.7619" y2="327.3518"/><linearGradient id="e"><stop offset="0" stop-color="#e2d8fc"/><stop offset="1" stop-color="#b3a2db"/></linearGradient><linearGradient id="f" gradientUnits="userSpaceOnUse" x1="151.3933" x2="176.1855" xlink:href="#e" y1="367.1848" y2="391.977"/><linearGradient id="g" gradientUnits="userSpaceOnUse" x1="339.8145" x2="364.6067" xlink:href="#e" y1="367.1848" y2="391.977"/><linearGradient id="h" gradientUnits="userSpaceOnUse" x1="193.54" x2="322.46" y1="315.1208" y2="444.0408"><stop offset="0" stop-color="#663325"/><stop offset="1" stop-color="#3c1b13"/></linearGradient><linearGradient id="i" gradientUnits="userSpaceOnUse" x1="211.3208" x2="225.3439" xlink:href="#e" y1="372.5693" y2="386.5924"/><linearGradient id="j" gradientUnits="userSpaceOnUse" x1="250.9588" x2="265.0412" xlink:href="#e" y1="372.5397" y2="386.6221"/><linearGradient id="k" gradientUnits="userSpaceOnUse" x1="290.6561" x2="304.6792" xlink:href="#e" y1="372.5693" y2="386.5924"/><path d="m512 256c0 141.386719-114.613281 256-256 256s-256-114.613281-256-256 114.613281-256 256-256 256 114.613281 256 256zm0 0" fill="url(#a)"/><path d="m302.296875 163.128906c0-12.296875-9.585937-22.214844-22.082031-22.214844-12.296875 0-22.214844 9.917969-22.214844 22.214844 0-12.296875-9.917969-22.214844-22.214844-22.214844-12.496094 0-22.742187 9.917969-22.742187 22.214844v-60.164062c0-12.296875-9.585938-22.214844-22.082031-22.214844-12.296876 0-22.214844 9.917969-22.214844 22.214844v117.285156h89.253906l44.296875-19.835938 20.164063-19.832031zm0 0" fill="url(#c)"/><path d="m347.253906 102.964844v236.949218l-44.628906 19.832032-44.625-19.832032-49.78125-60.363281-19.636719-79.136719h113.714844v-97.449218c0-12.296875 10.246094-22.214844 22.742187-22.214844 12.296876.003906 22.214844 9.917969 22.214844 22.214844zm0 0" fill="#ed9558"/><path d="m248.082031 289.667969h-19.832031c0-16.40625-13.347656-29.75-29.753906-29.75v-19.835938c27.34375 0 49.585937 22.246094 49.585937 49.585938zm0 0"/><path d="m178.664062 200.414062c-16.460937 0-29.75 13.289063-29.75 29.75v59.503907l19.832032 50.246093 49.585937 19.832032 39.667969-19.832032v-50.246093c0-27.371094-22.214844-49.585938-49.585938-49.585938h19.835938c16.460938 0 29.75-13.289062 29.75-29.75v-9.917969zm0 0" fill="url(#d)"/><path d="m148.914062 369.664062h29.75v19.832032h-29.75zm0 0" fill="url(#f)"/><path d="m337.335938 369.664062h29.75v19.832032h-29.75zm0 0" fill="url(#g)"/><path d="m258 339.914062h-89.253906v79.335938h178.507812v-79.335938zm0 0" fill="url(#h)"/><path d="m218.332031 393.605469-14.023437-14.023438 14.023437-14.023437 14.023438 14.023437zm0 0" fill="url(#i)"/><path d="m272.082031 379.582031-14.082031 14.078125-14.082031-14.078125 14.082031-14.085937zm0 0" fill="url(#j)"/><path d="m297.667969 393.605469-14.023438-14.023438 14.023438-14.023437 14.023437 14.023437zm0 0" fill="url(#k)"/></svg>